<svg width="18" height="19" viewBox="0 0 18 19" fill="none" xmlns="http://www.w3.org/2000/svg">
<g id="Group 8237">
<path id="Vector" d="M15.875 2.41663H1.70833C1.31713 2.41663 1 2.73376 1 3.12496V17.2916C1 17.6828 1.31713 18 1.70833 18H15.875C16.2662 18 16.5833 17.6828 16.5833 17.2916V3.12496C16.5833 2.73376 16.2662 2.41663 15.875 2.41663Z" stroke="#DC0028" stroke-width="1.6" stroke-linecap="round" stroke-linejoin="round"/>
<path id="Vector_2" d="M13.0414 1V3.47917" stroke="#DC0028" stroke-width="1.6" stroke-linecap="round" stroke-linejoin="round"/>
<path id="Vector_3" d="M4.54144 1V3.47917" stroke="#DC0028" stroke-width="1.6" stroke-linecap="round" stroke-linejoin="round"/>
<path id="Vector_4" d="M1 6.66663H16.5833" stroke="#DC0028" stroke-width="1.6" stroke-linecap="round" stroke-linejoin="round"/>
<path id="Vector_5" d="M4.89606 10.5625L6.31272 9.85413V14.8125" stroke="#DC0028" stroke-width="1.6" stroke-linecap="round" stroke-linejoin="round"/>
<path id="Vector_6" d="M9.68948 10.5625C9.78641 10.3956 9.91643 10.2502 10.0716 10.1354C10.2267 10.0205 10.4036 9.93861 10.5915 9.89461C10.7795 9.8506 10.9744 9.84547 11.1644 9.87951C11.3544 9.91355 11.5354 9.98606 11.6964 10.0926C11.8573 10.1991 11.9948 10.3374 12.1004 10.4989C12.206 10.6605 12.2774 10.8419 12.3104 11.0321C12.3433 11.2223 12.3371 11.4172 12.292 11.6049C12.2469 11.7925 12.164 11.969 12.0482 12.1235L9.5 14.8125H12.3333" stroke="#DC0028" stroke-width="1.6" stroke-linecap="round" stroke-linejoin="round"/>
</g>
</svg>
