<svg width="18" height="16" viewBox="0 0 18 16" fill="none" xmlns="http://www.w3.org/2000/svg">
<g id="Group 8198">
<path id="Vector" d="M15.6667 15H2.33333C1.97971 15 1.64057 14.8595 1.39052 14.6095C1.14048 14.3594 1 14.0203 1 13.6667V4.33333C1 3.97971 1.14048 3.64057 1.39052 3.39052C1.64057 3.14048 1.97971 3 2.33333 3H5L6.33333 1H11.6667L13 3H15.6667C16.0203 3 16.3594 3.14048 16.6095 3.39052C16.8595 3.64057 17 3.97971 17 4.33333V13.6667C17 14.0203 16.8595 14.3594 16.6095 14.6095C16.3594 14.8595 16.0203 15 15.6667 15Z" stroke="black" stroke-width="2" stroke-linecap="round" stroke-linejoin="round"/>
<path id="Vector_2" d="M8.99976 11.6667C10.6566 11.6667 11.9998 10.3236 11.9998 8.6667C11.9998 7.00985 10.6566 5.6667 8.99976 5.6667C7.3429 5.6667 5.99976 7.00985 5.99976 8.6667C5.99976 10.3236 7.3429 11.6667 8.99976 11.6667Z" stroke="black" stroke-width="2" stroke-linecap="round" stroke-linejoin="round"/>
</g>
</svg>
