<svg xmlns="http://www.w3.org/2000/svg" width="20" height="19" viewBox="0 0 20 19" fill="none">
<path d="M4.65685 10.6087L1 13.5652V1.73913C1 1.5431 1.07787 1.3551 1.21649 1.21649C1.3551 1.07787 1.5431 1 1.73913 1H13.5652C13.7612 1 13.9492 1.07787 14.0879 1.21649C14.2265 1.3551 14.3043 1.5431 14.3043 1.73913V9.86957C14.3043 10.0656 14.2265 10.2536 14.0879 10.3922C13.9492 10.5308 13.7612 10.6087 13.5652 10.6087H4.65685Z" stroke="" stroke-width="1.5" stroke-linecap="round" stroke-linejoin="round"/>
<path d="M5.43457 10.6087V14.3044C5.43457 14.5004 5.51244 14.6884 5.65106 14.827C5.78967 14.9656 5.97767 15.0435 6.1737 15.0435H15.0821L18.7389 18V6.17394C18.7389 5.97792 18.661 5.78991 18.5224 5.6513C18.3838 5.51269 18.1958 5.43481 17.9998 5.43481H14.3041" stroke="" stroke-width="1.5" stroke-linecap="round" stroke-linejoin="round"/>
</svg>