<svg xmlns="http://www.w3.org/2000/svg" width="16" height="16" viewBox="0 0 16 16" fill="none">
<path d="M6.3842 15C5.4241 14.1437 4.74405 13.0181 4.43262 11.7698" stroke="white" stroke-width="1.5" stroke-linecap="round" stroke-linejoin="round"/>
<path d="M11.7674 10.1547C11.7674 12.2859 12.6631 14.1252 14.4592 15H2.95159C1.69803 13.6986 0.998392 11.9616 1 10.1547C1 8.25626 1.75574 6.72998 2.98322 5.46818C3.05767 5.39267 3.15276 5.34084 3.25655 5.31917C3.36035 5.2975 3.46824 5.30696 3.56668 5.34637L5.27465 6.03818C5.40638 6.09076 5.5472 6.1168 5.68902 6.1148C5.83085 6.1128 5.97088 6.08279 6.10107 6.02651C6.23126 5.97023 6.34905 5.88879 6.44768 5.78685C6.5463 5.68491 6.62381 5.56449 6.67576 5.43251L8.08897 1.85842C8.36825 1.18545 9.13005 0.827439 9.81377 1.08249C9.98336 1.14552 10.1385 1.2421 10.2699 1.36644C10.4013 1.49078 10.5063 1.64035 10.5786 1.80619C10.6509 1.97203 10.6891 2.15075 10.6907 2.33166C10.6924 2.51257 10.6576 2.69196 10.5884 2.85911L9.15158 6.43253C9.04638 6.69752 9.05057 6.99341 9.16323 7.25531C9.27588 7.51721 9.48781 7.72374 9.75253 7.8296L11.4309 8.49179C11.5305 8.53207 11.6157 8.6012 11.6757 8.6903C11.7356 8.7794 11.7676 8.8844 11.7674 8.9918V10.1547Z" stroke="white" stroke-width="1.5" stroke-linecap="round" stroke-linejoin="round"/>
<path d="M1.5752 7.47687L11.92 11.6149" stroke="white" stroke-width="1.5" stroke-linecap="round" stroke-linejoin="round"/>
</svg>