<svg width="13" height="15" viewBox="0 0 13 15" fill="none" xmlns="http://www.w3.org/2000/svg">
<path d="M12.2245 3.55087H1" stroke="#DC0028" stroke-width="1.5" stroke-linecap="round" stroke-linejoin="round"/>
<path d="M5.08032 6.35696V10.4386" stroke="#DC0028" stroke-width="1.5" stroke-linecap="round" stroke-linejoin="round"/>
<path d="M8.14429 6.35696V10.4386" stroke="#DC0028" stroke-width="1.5" stroke-linecap="round" stroke-linejoin="round"/>
<path d="M11.2049 3.55087V12.9896C11.2049 13.125 11.1512 13.2547 11.0555 13.3504C10.9598 13.4461 10.83 13.4999 10.6947 13.4999H2.53144C2.39613 13.4999 2.26636 13.4461 2.17068 13.3504C2.07499 13.2547 2.02124 13.125 2.02124 12.9896V3.55087" stroke="#DC0028" stroke-width="1.5" stroke-linecap="round" stroke-linejoin="round"/>
<path d="M9.16283 3.55102V2.02041C9.16283 1.74978 9.05532 1.49023 8.86396 1.29887C8.6726 1.10751 8.41305 1 8.14242 1H5.0812C4.81057 1 4.55103 1.10751 4.35966 1.29887C4.1683 1.49023 4.06079 1.74978 4.06079 2.02041V3.55102" stroke="#DC0028" stroke-width="1.5" stroke-linecap="round" stroke-linejoin="round"/>
</svg>
