<svg width="16" height="16" viewBox="0 0 16 16" fill="none" xmlns="http://www.w3.org/2000/svg">
<g id="Group">
<path id="Vector" d="M6.22806 12.5213L4.94072 12.176L5.46539 10.2167C4.68004 9.92702 3.95014 9.50491 3.30739 8.96867L1.87206 10.4047L0.928724 9.46133L2.36472 8.026C1.55411 7.05517 1.00945 5.89051 0.784058 4.646L2.09606 4.40667C2.60206 7.208 5.05272 9.33333 8.00006 9.33333C10.9467 9.33333 13.3981 7.208 13.9041 4.40667L15.2161 4.64533C14.991 5.89001 14.4465 7.05491 13.6361 8.026L15.0714 9.46133L14.1281 10.4047L12.6927 8.96867C12.05 9.50491 11.3201 9.92702 10.5347 10.2167L11.0594 12.1767L9.77206 12.5213L9.24673 10.5613C8.42163 10.7027 7.57849 10.7027 6.75339 10.5613L6.22806 12.5213Z" fill=""/>
</g>
</svg>
