<svg xmlns="http://www.w3.org/2000/svg" width="19" height="19" viewBox="0 0 19 19" fill="none">
<path d="M11.3476 17.2609V12.8262C11.3476 12.6302 11.2697 12.4422 11.1311 12.3036C10.9925 12.1649 10.8045 12.0871 10.6085 12.0871H7.65204C7.45601 12.0871 7.26802 12.1649 7.1294 12.3036C6.99079 12.4422 6.91292 12.6302 6.91292 12.8262V17.2609C6.91292 17.4569 6.83505 17.6449 6.69644 17.7835C6.55783 17.9221 6.36983 18 6.17381 18H1.73912C1.54309 18 1.35509 17.9221 1.21648 17.7835C1.07787 17.6449 1 17.4569 1 17.2609V8.71856C1.00001 8.61556 1.02155 8.5137 1.06323 8.41951C1.10492 8.32532 1.16583 8.24088 1.24206 8.17161L8.63321 1.19252C8.7693 1.06865 8.94671 1 9.13073 1C9.31475 1 9.49216 1.06865 9.62825 1.19252L17.0194 8.17161C17.0956 8.24088 17.1565 8.32532 17.1982 8.41951C17.2399 8.5137 17.2615 8.61556 17.2615 8.71856V17.2609C17.2615 17.4569 17.1836 17.6449 17.045 17.7835C16.9064 17.9221 16.7184 18 16.5223 18H12.0867C11.8907 18 11.7027 17.9221 11.5641 17.7835C11.4255 17.6449 11.3476 17.4569 11.3476 17.2609Z" stroke="" stroke-width="1.5" stroke-linecap="round" stroke-linejoin="round"/>
</svg>