<svg width="13" height="12" viewBox="0 0 13 12" fill="none" xmlns="http://www.w3.org/2000/svg">
<g id="In progress">
<path id="Vector" d="M11.5834 6.41667C11.3714 8.98333 9.20473 11 6.58337 11C5.25729 11 3.98552 10.4732 3.04784 9.53553C2.11016 8.59785 1.58337 7.32608 1.58337 6C1.58337 3.37865 3.60004 1.21198 6.16671 1" stroke="#DC0028" stroke-width="1.2" stroke-linecap="round" stroke-linejoin="round"/>
<path id="Vector_2" d="M6.58337 3.29199V6.00032H9.29171" stroke="#DC0028" stroke-width="1.2" stroke-linecap="round" stroke-linejoin="round"/>
<path id="Vector_3" d="M10.7502 4.33366C11.2104 4.33366 11.5835 3.96056 11.5835 3.50033C11.5835 3.04009 11.2104 2.66699 10.7502 2.66699C10.29 2.66699 9.91687 3.04009 9.91687 3.50033C9.91687 3.96056 10.29 4.33366 10.7502 4.33366Z" fill="#DC0028"/>
<path id="Vector_4" d="M9.08321 2.66667C9.54345 2.66667 9.91654 2.29357 9.91654 1.83333C9.91654 1.3731 9.54345 1 9.08321 1C8.62297 1 8.24988 1.3731 8.24988 1.83333C8.24988 2.29357 8.62297 2.66667 9.08321 2.66667Z" fill="#DC0028"/>
</g>
</svg>
