<svg width="277" height="46" viewBox="0 0 277 46" fill="none" xmlns="http://www.w3.org/2000/svg">
<path d="M103.193 16.4753C104.38 12.0352 101.889 7.54037 97.1631 7.54037H72.7947L74.6279 14.3862H77.1494L70.9188 37.6584H76.0653C77.588 37.6584 78.9157 36.6351 79.3116 35.1673L80.8464 29.4422H91.712C96.9256 29.4422 100.604 26.1411 101.694 22.0664L103.193 16.4814V16.4753ZM95.476 16.4936L94.6477 19.5876C94.2031 21.2442 92.583 22.5902 91.0238 22.5902H82.698L84.2206 16.9077L77.6428 14.3862H94.0569C95.1532 14.3862 95.7866 15.3302 95.476 16.4936ZM146.15 7.54037L144.316 14.3862H128.95L135.552 16.926L130.643 35.1734C130.247 36.6412 128.919 37.6645 127.397 37.6645H121.611L128.475 14.3923H120.6L118.76 7.54647H146.156L146.15 7.54037ZM105.83 7.54037H117.213L115.38 14.3862H108.132L114.741 16.926L109.832 35.1734C109.436 36.6412 108.108 37.6645 106.585 37.6645H101.427L107.657 14.3923L105.83 7.54647V7.54037Z" fill="#DC0028"/>
<path d="M6.05405 22.59H29.18L24.1248 41.4465C23.534 43.6452 21.5424 45.18 19.2645 45.18H0L6.05405 22.59ZM33.078 8.04567L29.18 22.59H48.4446C50.7224 22.59 52.7202 21.0613 53.3048 18.8565L58.36 0H12.102L33.0719 8.04567H33.078ZM211.484 17.6383L210.54 21.1587C209.62 24.5938 206.605 26.6159 203.261 27.6452L206.94 37.6277H198.669L195.435 28.0715H189.18L187.292 35.1305C186.896 36.5984 185.568 37.6216 184.045 37.6216H178.899L185.13 14.3494H182.608L180.781 7.50361H204.418C209.985 7.50361 213.049 11.7609 211.477 17.6262L211.484 17.6383ZM202.652 14.3555H185.611L192.189 16.8831L191.025 21.2318H199.978C201.538 21.2318 203.158 19.8858 203.602 18.223L204.071 16.469C204.382 15.3057 203.749 14.3555 202.652 14.3555ZM276.744 7.5097H257.638C252.577 7.5097 249.647 10.2809 248.557 14.3555L247.93 16.7004C246.748 21.11 250.074 25.4404 254.635 25.4404H263.022C263.802 25.4404 264.252 26.1164 264.033 26.9448L263.412 29.2775C263.193 30.1058 262.377 30.7818 261.597 30.7818H244.16L242.326 37.6277H262.462C266.256 37.6277 269.582 35.0757 270.568 31.4092L271.433 28.1873C272.621 23.7594 269.283 19.4107 264.703 19.4107H257.029C255.975 19.4107 255.208 18.4119 255.482 17.3886L255.622 16.8709L249.044 14.3494H274.923L276.756 7.50361L276.744 7.5097ZM244.732 16.1766L240.67 31.33C239.738 34.8199 236.15 37.6459 232.661 37.6459H218.427C213.268 37.6459 210.722 32.6699 211.819 28.5892L215.637 14.3433C216.734 10.2626 219.767 7.48534 224.865 7.48534H238.294C242.74 7.48534 245.926 11.7305 244.732 16.1766ZM235.487 14.3433H216.192L223.178 16.9501L219.87 29.2836C219.645 30.1119 220.138 30.7879 220.973 30.7879H231.083C231.911 30.7879 232.77 30.1119 232.989 29.2836L236.589 15.8477C236.814 15.0194 236.321 14.3433 235.487 14.3433ZM179.106 16.469L177.608 22.054C176.517 26.1286 172.833 29.4297 167.625 29.4297H156.76L155.225 35.1549C154.829 36.6227 153.501 37.6459 151.979 37.6459H146.832L153.063 14.3738H150.541L148.684 7.52797H173.07C177.797 7.52797 180.288 12.0289 179.1 16.4629L179.106 16.469ZM169.97 14.3738H153.556L160.134 16.9014L158.611 22.59H166.937C168.496 22.59 170.116 21.244 170.561 19.5812L171.389 16.4872C171.7 15.3239 171.066 14.3738 169.97 14.3738Z" fill="black"/>
</svg>
