<?xml version="1.0" encoding="utf-8"?>
<svg version="1.1" id="Layer_1" xmlns="http://www.w3.org/2000/svg" xmlns:xlink="http://www.w3.org/1999/xlink" x="0px" y="0px"
	 viewBox="0 0 23.9 36.7" style="enable-background:new 0 0 23.9 36.7;" xml:space="preserve">
<style type="text/css">
	.st0{fill-opacity:0.12;}
	.st1{fill:url(#SVGID_1_);}
	.st2{fill-rule:evenodd;clip-rule:evenodd;fill:#DC0028;}
	.st3{fill:#FFFFFF;}
</style>
<g>
	<ellipse class="st0" cx="12.1" cy="34.5" rx="3.9" ry="2.2"/>
</g>
<g>
	
		<linearGradient id="SVGID_1_" gradientUnits="userSpaceOnUse" x1="12.0947" y1="732.8684" x2="12.0947" y2="766.069" gradientTransform="matrix(1 0 0 1 0 -732)">
		<stop  offset="0" style="stop-color:#FFFFFF"/>
		<stop  offset="1" style="stop-color:#FFFFFF;stop-opacity:0.35"/>
	</linearGradient>
	<path class="st1" d="M20.8,18.4l-0.7-0.5l0,0l0,0L20.8,18.4z M18.9,20.6l0.6,0.6L18.9,20.6z M5.2,20.6L5.8,20l0,0L5.2,20.6z
		 M3.3,18.4L4,17.9l0,0l0,0L3.3,18.4z M21.5,18.9c1.5-2,2.4-4.4,2.4-7.1h-1.7c0,2.3-0.8,4.4-2,6L21.5,18.9z M19.5,21.2
		c0.7-0.8,1.4-1.6,2-2.3l-1.4-1c-0.5,0.6-1.1,1.3-1.8,2.1L19.5,21.2z M13.8,33.2c0-5.7,3.2-9.2,5.7-12L18.3,20
		c-2.5,2.8-6.2,6.7-6.2,13.2H13.8z M12.1,34.9c1,0,1.7-0.8,1.7-1.7h-1.7V34.9z M10.3,33.2c0,1,0.8,1.7,1.7,1.7v-1.7H10.3z M4.6,21.2
		c2.6,2.8,5.7,6.3,5.7,12H12c0-6.5-3.6-10.4-6.2-13.2L4.6,21.2z M2.6,18.9c0.5,0.7,1.2,1.5,2,2.3L5.9,20c-0.7-0.8-1.4-1.5-1.8-2.1
		L2.6,18.9z M0.3,11.8c0,2.7,0.9,5.1,2.4,7.1l1.4-1.1c-1.3-1.7-2-3.8-2-6H0.3z M12.1,0C5.6,0,0.3,5.3,0.3,11.8H2c0-5.5,4.5-10,10-10
		V0H12.1z M23.9,11.8C23.9,5.3,18.6,0,12.1,0v1.7c5.5,0,10,4.5,10,10h1.8V11.8z"/>
	<path class="st2" d="M23,11.8c0,2.5-0.8,4.7-2.2,6.6c-0.5,0.7-1.2,1.4-1.9,2.2c-2.6,2.8-6,6.5-6,12.6c0,0.5-0.4,0.9-0.9,0.9
		s-0.9-0.4-0.9-0.9c0-6.1-3.4-9.8-6-12.6c-0.7-0.8-1.4-1.5-1.9-2.2C1.8,16.6,1,14.3,1,11.8c0-6,4.9-10.9,10.9-10.9
		C18.1,0.9,23,5.8,23,11.8z"/>
	<path class="st3" d="M6,12.4h6.1l-1.3,4.9c-0.2,0.6-0.7,1-1.3,1H4.4L6,12.4z M13.1,8.6l-1,3.8h5.1c0.6,0,1.1-0.4,1.3-1l1.3-4.9H7.6
		L13.1,8.6L13.1,8.6z"/>
</g>
</svg>
