<svg width="18" height="20" viewBox="0 0 18 20" fill="none" xmlns="http://www.w3.org/2000/svg">
<path d="M5.99707 15.4673V16.2024C5.99707 16.9822 6.30687 17.7302 6.85832 18.2816C7.40976 18.833 8.15768 19.1428 8.93755 19.1428C9.71741 19.1428 10.4653 18.833 11.0168 18.2816C11.5682 17.7302 11.878 16.9822 11.878 16.2024V15.4673" stroke="white" stroke-width="1.5" stroke-linecap="round" stroke-linejoin="round"/>
<path d="M2.32226 8.11607C2.32226 6.36138 3.01931 4.67856 4.26006 3.4378C5.50082 2.19705 7.18364 1.5 8.93833 1.5C10.693 1.5 12.3758 2.19705 13.6166 3.4378C14.8574 4.67856 15.5544 6.36138 15.5544 8.11607C15.5544 11.4076 16.3171 13.317 16.9236 14.3646C16.988 14.4761 17.0219 14.6027 17.022 14.7315C17.0222 14.8603 16.9884 14.9869 16.9242 15.0986C16.86 15.2103 16.7676 15.3031 16.6562 15.3678C16.5448 15.4325 16.4183 15.4668 16.2895 15.4673H1.58714C1.45848 15.4665 1.33227 15.432 1.22113 15.3671C1.11 15.3023 1.01782 15.2094 0.953826 15.0978C0.889829 14.9862 0.856251 14.8597 0.856446 14.731C0.856642 14.6024 0.890604 14.476 0.95494 14.3646C1.56049 13.317 2.32226 11.4066 2.32226 8.11607Z" stroke="white" stroke-width="1.5" stroke-linecap="round" stroke-linejoin="round"/>
</svg>
