<svg width="56" height="56" viewBox="0 0 56 56" fill="none" xmlns="http://www.w3.org/2000/svg">
<circle cx="28" cy="28" r="28" fill="#23A26D" fill-opacity="0.12"/>
<path d="M27.4998 14.6667C20.1532 14.6667 14.1665 20.6534 14.1665 28C14.1665 35.3467 20.1532 41.3334 27.4998 41.3334C34.8465 41.3334 40.8332 35.3467 40.8332 28C40.8332 20.6534 34.8465 14.6667 27.4998 14.6667ZM33.8732 24.9334L26.3132 32.4934C26.1265 32.68 25.8732 32.7867 25.6065 32.7867C25.3398 32.7867 25.0865 32.68 24.8998 32.4934L21.1265 28.72C20.7398 28.3334 20.7398 27.6934 21.1265 27.3067C21.5132 26.92 22.1532 26.92 22.5398 27.3067L25.6065 30.3734L32.4598 23.52C32.8465 23.1334 33.4865 23.1334 33.8732 23.52C34.2598 23.9067 34.2598 24.5334 33.8732 24.9334Z" fill="#23A26D"/>
</svg>
