<svg width="15" height="15" viewBox="0 0 15 15" fill="none" xmlns="http://www.w3.org/2000/svg">
<path id="Vector" d="M15 9.375V13.75C15 14.0815 14.8683 14.3995 14.6339 14.6339C14.3995 14.8683 14.0815 15 13.75 15H1.25C0.918479 15 0.600537 14.8683 0.366116 14.6339C0.131696 14.3995 0 14.0815 0 13.75V9.375C0 9.20924 0.0658481 9.05027 0.183058 8.93306C0.300269 8.81585 0.45924 8.75 0.625 8.75C0.79076 8.75 0.949731 8.81585 1.06694 8.93306C1.18415 9.05027 1.25 9.20924 1.25 9.375V13.75H13.75V9.375C13.75 9.20924 13.8158 9.05027 13.9331 8.93306C14.0503 8.81585 14.2092 8.75 14.375 8.75C14.5408 8.75 14.6997 8.81585 14.8169 8.93306C14.9342 9.05027 15 9.20924 15 9.375ZM7.05781 9.81719C7.11586 9.8753 7.18479 9.9214 7.26066 9.95285C7.33654 9.9843 7.41787 10.0005 7.5 10.0005C7.58213 10.0005 7.66346 9.9843 7.73934 9.95285C7.81521 9.9214 7.88414 9.8753 7.94219 9.81719L11.0672 6.69219C11.1547 6.60478 11.2143 6.49337 11.2385 6.37207C11.2626 6.25076 11.2502 6.12502 11.2029 6.01076C11.1555 5.89649 11.0754 5.79884 10.9725 5.73018C10.8696 5.66151 10.7487 5.6249 10.625 5.625H8.125V0.625C8.125 0.45924 8.05915 0.300269 7.94194 0.183058C7.82473 0.0658481 7.66576 0 7.5 0C7.33424 0 7.17527 0.0658481 7.05806 0.183058C6.94085 0.300269 6.875 0.45924 6.875 0.625V5.625H4.375C4.25132 5.6249 4.13038 5.66151 4.02751 5.73018C3.92464 5.79884 3.84446 5.89649 3.79711 6.01076C3.74977 6.12502 3.73739 6.25076 3.76154 6.37207C3.7857 6.49337 3.84531 6.60478 3.93281 6.69219L7.05781 9.81719Z" fill="black"/>
</svg>
