<svg width="20" height="20" viewBox="0 0 20 20" fill="none" xmlns="http://www.w3.org/2000/svg">
<g id="Group">
<g id="Group_2">
<path id="Vector" d="M19.362 15.459C19.3052 15.1183 19.1349 14.8344 18.9646 14.664C18.7942 14.6073 17.8857 13.9827 16.523 13.0742C15.7849 12.6199 15.1035 12.1657 14.9899 12.0521C14.5925 11.825 14.0815 11.8818 13.5137 12.1657C13.2298 12.2793 12.3213 12.7903 11.867 13.0742L11.6967 13.1878L11.5831 13.131C11.2992 12.9606 10.4475 12.336 8.68736 10.5759C7.26785 9.15636 6.47293 8.1911 6.18903 7.73686L6.13225 7.6233L6.18903 7.50974C6.41615 7.0555 6.92717 6.09024 7.15429 5.80634C7.43819 5.23854 7.49497 4.67074 7.26785 4.38684C7.21107 4.27328 7.04073 4.04616 6.81361 3.6487C6.13225 2.62665 4.82631 0.639351 4.71275 0.469011C4.48563 0.18511 4.20173 0.0147702 3.91783 0.0147702C3.86105 0.0147702 3.74749 0.0147702 3.69071 0.0147702C3.40681 -0.0420099 3.06613 0.0715503 2.839 0.241891C2.04408 0.809691 0 2.45631 0 3.42158C0.11356 6.14702 2.15764 9.44027 6.01869 13.2445C9.93652 17.1624 13.2298 19.2064 15.8984 19.32C16.8637 19.32 18.7374 16.9352 18.9646 16.5378L19.0213 16.481C19.3052 16.1403 19.4188 15.7996 19.362 15.459ZM18.4535 16.1403C17.9993 16.8217 16.523 18.5819 15.9552 18.6386C13.4569 18.5251 10.2772 16.5946 6.52971 12.8471C3.97461 10.2352 0.851701 6.54448 0.738141 3.47836C0.851701 2.79699 2.78223 1.20715 3.29325 0.866472C3.40681 0.696131 3.57715 0.696131 3.74749 0.696131C3.97461 0.696131 4.03139 0.809691 4.08817 0.866472C4.31529 1.15037 5.22377 2.51309 6.07547 3.87582C6.35937 4.27328 6.52971 4.61396 6.58649 4.72752C6.64327 4.7843 6.75683 5.01142 6.47293 5.46566C6.24581 5.86312 5.39411 7.45296 5.39411 7.45296L5.28055 7.6233L5.39411 7.85042C5.50767 8.07754 6.24581 9.21314 8.17633 11.1437C10.1636 13.0742 11.2425 13.8123 11.4128 13.9259L11.6967 14.0962L11.867 13.9827C11.867 13.9827 13.4569 13.131 13.8543 12.8471C14.195 12.6767 14.4221 12.6767 14.4789 12.6767H14.5925C14.9899 12.8471 18.34 15.1183 18.5103 15.2318L18.5671 15.2886V15.3454C18.6239 15.5157 18.6807 15.7996 18.4535 16.1403Z" fill="#151515"/>
</g>
</g>
</svg>
