<svg xmlns="http://www.w3.org/2000/svg" width="23" height="18" viewBox="0 0 23 18" fill="none">
<path d="M21 4.59998H1.8C1.35817 4.59998 1 4.95815 1 5.39998V16.2C1 16.6418 1.35817 17 1.8 17H21C21.4418 17 21.8 16.6418 21.8 16.2V5.39998C21.8 4.95815 21.4418 4.59998 21 4.59998Z" stroke="" stroke-width="1.5" stroke-linecap="round" stroke-linejoin="round"/>
<path d="M1 10.2H21.8" stroke="" stroke-width="1.5" stroke-linecap="round" stroke-linejoin="round"/>
<path d="M5.7998 8.59998V11.8" stroke="" stroke-width="1.5" stroke-linecap="round" stroke-linejoin="round"/>
<path d="M17 8.59998V11.8" stroke="" stroke-width="1.5" stroke-linecap="round" stroke-linejoin="round"/>
<path d="M15.4004 4.2V2.6C15.4004 2.17565 15.2318 1.76869 14.9318 1.46863C14.6317 1.16857 14.2247 1 13.8004 1H9.00039C8.57604 1 8.16908 1.16857 7.86902 1.46863C7.56896 1.76869 7.40039 2.17565 7.40039 2.6V4.2" stroke="" stroke-width="1.5" stroke-linecap="round" stroke-linejoin="round"/>
</svg>
