<svg width="24" height="24" viewBox="0 0 24 24" fill="none" xmlns="http://www.w3.org/2000/svg">
<path d="M12.8188 3.78192L12.8195 3.78332L14.5476 7.23943C14.733 7.61622 15.0423 7.93778 15.3614 8.17322C15.6818 8.40963 16.0799 8.60937 16.4916 8.67798L16.492 8.67804L19.6259 9.19873C19.6261 9.19875 19.6262 9.19877 19.6263 9.19879C20.4989 9.3443 20.7801 9.68727 20.8443 9.88715C20.908 10.0854 20.8808 10.5255 20.2524 11.1496L20.2506 11.1514L17.8138 13.5881C17.4951 13.9068 17.2823 14.3326 17.165 14.7423C17.0476 15.1523 17.0036 15.6244 17.1014 16.0609L17.1014 16.0609L17.1025 16.0659L17.8 19.0817C18.0605 20.2122 17.7963 20.6121 17.6727 20.7022C17.5478 20.7933 17.0835 20.922 16.0832 20.3313C16.083 20.3311 16.0828 20.331 16.0826 20.3309L13.1456 18.5923C13.1455 18.5923 13.1454 18.5922 13.1453 18.5921C12.7362 18.3498 12.2441 18.2517 11.7942 18.2517C11.3436 18.2517 10.8518 18.3501 10.4406 18.5893L10.4406 18.5893L10.4358 18.5921L7.49793 20.3313L7.49722 20.3317C6.50501 20.9205 6.03965 20.7916 5.91235 20.6987C5.78564 20.6063 5.52138 20.204 5.78092 19.0824L5.78095 19.0823L6.47856 16.0659L6.47857 16.0659L6.47969 16.0609C6.57752 15.6244 6.53345 15.1523 6.41607 14.7423C6.29879 14.3326 6.08598 13.9068 5.76725 13.5881L3.33052 11.1514C2.70626 10.5271 2.67701 10.0858 2.74088 9.88579C2.80452 9.6865 3.08307 9.34408 3.95517 9.19873L7.08913 8.67804L7.08913 8.67804L7.09177 8.67759C7.49926 8.6084 7.89465 8.40783 8.21246 8.17218C8.52935 7.93722 8.8384 7.61601 9.02365 7.23946L10.751 3.78473C10.7511 3.78453 10.7512 3.78434 10.7513 3.78415C11.1686 2.95414 11.5877 2.79041 11.7893 2.79041C11.9896 2.79041 12.4063 2.95256 12.8188 3.78192Z" fill="#E8E8E8" stroke="#E8E8E8" stroke-width="1.5" stroke-linecap="round" stroke-linejoin="round"/>
<path d="M9.70665 11.3176C10.0752 11.3176 10.374 11.0188 10.374 10.6503C10.374 10.2817 10.0752 9.98291 9.70665 9.98291C9.33809 9.98291 9.03931 10.2817 9.03931 10.6503C9.03931 11.0188 9.33809 11.3176 9.70665 11.3176Z" fill="#C6C6C6"/>
<path d="M13.9486 11.3176C14.3172 11.3176 14.6159 11.0188 14.6159 10.6503C14.6159 10.2817 14.3172 9.98291 13.9486 9.98291C13.58 9.98291 13.2812 10.2817 13.2812 10.6503C13.2812 11.0188 13.58 11.3176 13.9486 11.3176Z" fill="#C6C6C6"/>
<path d="M9.37667 13.7262C9.19958 13.7309 9.0957 13.9011 9.0957 14.3596C9.0957 15.8823 11.329 15.9297 11.763 15.9245C12.1787 15.9302 14.4375 15.8906 14.4375 14.3597C14.4375 13.9153 14.3399 13.7418 14.1726 13.7272" fill="#C6C6C6"/>
</svg>
