<svg width="25" height="24" viewBox="0 0 25 24" fill="none" xmlns="http://www.w3.org/2000/svg">
<path d="M13.269 3.78192L13.2697 3.78332L14.9978 7.23943C15.1832 7.61622 15.4925 7.93778 15.8116 8.17322C16.132 8.40963 16.5301 8.60937 16.9418 8.67798L16.9422 8.67804L20.0761 9.19873C20.0762 9.19875 20.0764 9.19877 20.0765 9.19879C20.9491 9.3443 21.2303 9.68727 21.2945 9.88715C21.3582 10.0854 21.331 10.5255 20.7026 11.1496L20.7008 11.1514L18.264 13.5881C17.9453 13.9068 17.7325 14.3326 17.6152 14.7423C17.4978 15.1523 17.4538 15.6244 17.5516 16.0609L17.5516 16.0609L17.5527 16.0659L18.2502 19.0817C18.5107 20.2122 18.2465 20.6121 18.1229 20.7022C17.998 20.7933 17.5337 20.922 16.5334 20.3313C16.5332 20.3311 16.5329 20.331 16.5327 20.3309L13.5958 18.5923C13.5957 18.5923 13.5956 18.5922 13.5955 18.5921C13.1863 18.3498 12.6943 18.2517 12.2444 18.2517C11.7938 18.2517 11.302 18.3501 10.8908 18.5893L10.8908 18.5893L10.886 18.5921L7.94812 20.3313L7.94742 20.3317C6.9552 20.9205 6.48984 20.7916 6.36255 20.6987C6.23583 20.6063 5.97158 20.204 6.23112 19.0824L6.23114 19.0823L6.92875 16.0659L6.92877 16.0659L6.92988 16.0609C7.02772 15.6244 6.98365 15.1523 6.86627 14.7423C6.74898 14.3326 6.53617 13.9068 6.21744 13.5881L3.78071 11.1514C3.15645 10.5271 3.12721 10.0858 3.19108 9.88579C3.25472 9.6865 3.53326 9.34408 4.40536 9.19873L7.53933 8.67804L7.53933 8.67804L7.54197 8.67759C7.94945 8.6084 8.34484 8.40783 8.66266 8.17218C8.97954 7.93722 9.2886 7.61601 9.47385 7.23946L11.2012 3.78473C11.2013 3.78453 11.2014 3.78434 11.2015 3.78415C11.6188 2.95414 12.0379 2.79041 12.2395 2.79041C12.4398 2.79041 12.8565 2.95256 13.269 3.78192Z" fill="#FABF35" stroke="#FABF35" stroke-width="1.5" stroke-linecap="round" stroke-linejoin="round"/>
<path d="M9.68566 11.3176C10.0542 11.3176 10.353 11.0188 10.353 10.6503C10.353 10.2817 10.0542 9.98291 9.68566 9.98291C9.31709 9.98291 9.01831 10.2817 9.01831 10.6503C9.01831 11.0188 9.31709 11.3176 9.68566 11.3176Z" fill="#BB8300"/>
<path d="M14.7579 11.3176C15.1265 11.3176 15.4253 11.0188 15.4253 10.6503C15.4253 10.2817 15.1265 9.98291 14.7579 9.98291C14.3894 9.98291 14.0906 10.2817 14.0906 10.6503C14.0906 11.0188 14.3894 11.3176 14.7579 11.3176Z" fill="#BB8300"/>
<path d="M9.42481 14.9621C9.54323 14.9317 9.66151 14.9082 9.77993 14.8855C9.89835 14.8629 10.0166 14.8444 10.1351 14.8266C10.3718 14.7915 10.6085 14.7654 10.8452 14.743C11.3187 14.6999 11.7921 14.68 12.2657 14.6766C12.7392 14.6732 13.2126 14.6883 13.686 14.7258C13.8044 14.7351 13.9227 14.7458 14.0411 14.7589C14.1596 14.772 14.2779 14.7859 14.3963 14.8016C14.5147 14.8174 14.633 14.8359 14.7514 14.8571C14.8698 14.8782 14.9881 14.9009 15.1065 14.9304C15.1891 14.9511 15.2624 14.9987 15.3148 15.0658C15.3672 15.1329 15.3956 15.2156 15.3956 15.3007C15.3956 15.3859 15.3672 15.4685 15.3148 15.5356C15.2624 15.6027 15.1891 15.6504 15.1065 15.671C14.9881 15.7006 14.8697 15.7236 14.7514 15.7444C14.6331 15.7652 14.5147 15.7831 14.3963 15.7998C14.2779 15.8166 14.1596 15.8303 14.0411 15.8426C13.9227 15.8549 13.8044 15.8663 13.686 15.8758C13.2126 15.9131 12.7391 15.9278 12.2657 15.9249C11.7923 15.9219 11.3187 15.9017 10.8452 15.8586C10.6085 15.8363 10.3718 15.81 10.1351 15.775C10.0166 15.7571 9.89822 15.7383 9.77993 15.7159C9.66165 15.6936 9.54323 15.67 9.42481 15.6393C9.34976 15.6199 9.28328 15.5762 9.23581 15.5149C9.18835 15.4536 9.1626 15.3783 9.1626 15.3007C9.1626 15.2232 9.18835 15.1479 9.23581 15.0866C9.28328 15.0253 9.34976 14.9815 9.42481 14.9621Z" fill="#BB8300"/>
</svg>
