<svg width="25" height="24" viewBox="0 0 25 24" fill="none" xmlns="http://www.w3.org/2000/svg">
<path d="M13.7187 3.78192L13.7194 3.78332L15.4475 7.23943C15.6329 7.61622 15.9422 7.93778 16.2613 8.17322C16.5817 8.40963 16.9798 8.60937 17.3915 8.67798L17.3919 8.67804L20.5258 9.19873C20.526 9.19875 20.5261 9.19877 20.5262 9.19879C21.3988 9.3443 21.68 9.68727 21.7442 9.88715C21.8079 10.0854 21.7807 10.5255 21.1523 11.1496L21.1505 11.1514L18.7137 13.5881C18.395 13.9068 18.1822 14.3326 18.0649 14.7423C17.9475 15.1523 17.9035 15.6244 18.0013 16.0609L18.0013 16.0609L18.0024 16.0659L18.6999 19.0817C18.9605 20.2122 18.6962 20.6121 18.5726 20.7022C18.4477 20.7933 17.9834 20.922 16.9831 20.3313C16.9829 20.3311 16.9827 20.331 16.9825 20.3309L14.0455 18.5923C14.0454 18.5923 14.0453 18.5922 14.0452 18.5921C13.6361 18.3498 13.144 18.2517 12.6941 18.2517C12.2435 18.2517 11.7517 18.3501 11.3406 18.5893L11.3405 18.5893L11.3357 18.5921L8.39783 20.3313L8.39712 20.3317C7.40491 20.9205 6.93955 20.7916 6.81225 20.6987C6.68554 20.6063 6.42129 20.204 6.68083 19.0824L6.68085 19.0823L7.37846 16.0659L7.37848 16.0659L7.37959 16.0609C7.47742 15.6244 7.43335 15.1523 7.31597 14.7423C7.19869 14.3326 6.98588 13.9068 6.66715 13.5881L4.23042 11.1514C3.60616 10.5271 3.57692 10.0858 3.64078 9.88579C3.70443 9.6865 3.98297 9.34408 4.85507 9.19873L7.98904 8.67804L7.98904 8.67804L7.99167 8.67759C8.39916 8.6084 8.79455 8.40783 9.11237 8.17218C9.42925 7.93722 9.73831 7.61601 9.92356 7.23946L11.6509 3.78473C11.651 3.78453 11.6511 3.78434 11.6512 3.78415C12.0685 2.95414 12.4876 2.79041 12.6892 2.79041C12.8895 2.79041 13.3062 2.95256 13.7187 3.78192Z" fill="#E8E8E8" stroke="#E8E8E8" stroke-width="1.5" stroke-linecap="round" stroke-linejoin="round"/>
<path d="M10.5451 11.195C10.8798 11.195 11.1511 10.9237 11.1511 10.5889C11.1511 10.2542 10.8798 9.98291 10.5451 9.98291C10.2105 9.98291 9.93921 10.2542 9.93921 10.5889C9.93921 10.9237 10.2105 11.195 10.5451 11.195Z" fill="#C6C6C6"/>
<path d="M14.7873 11.195C15.122 11.195 15.3933 10.9237 15.3933 10.5889C15.3933 10.2542 15.122 9.98291 14.7873 9.98291C14.4527 9.98291 14.1814 10.2542 14.1814 10.5889C14.1814 10.9237 14.4527 11.195 14.7873 11.195Z" fill="#C6C6C6"/>
<path d="M10.2768 15.9255C10.0997 15.9208 9.99585 15.7506 9.99585 15.2921C9.99585 13.7694 12.2291 13.7221 12.6631 13.7273C13.0789 13.7215 15.3376 13.7611 15.3376 15.292C15.3376 15.7364 15.24 15.91 15.0728 15.9245" fill="#C6C6C6"/>
</svg>
