<svg width="25" height="24" viewBox="0 0 25 24" fill="none" xmlns="http://www.w3.org/2000/svg">
<path d="M13.5439 3.78192L13.5446 3.78332L15.2727 7.23946C15.4581 7.61624 15.7675 7.93779 16.0865 8.17322C16.4069 8.40963 16.805 8.60937 17.2167 8.67798L17.2171 8.67804L20.351 9.19873C20.3511 9.19875 20.3513 9.19877 20.3514 9.19879C21.224 9.3443 21.5052 9.68727 21.5694 9.88715C21.6331 10.0854 21.6059 10.5255 20.9775 11.1496L20.9757 11.1514L18.5389 13.5881C18.2202 13.9068 18.0074 14.3326 17.8901 14.7423C17.7727 15.1523 17.7287 15.6244 17.8265 16.0609L17.8265 16.0609L17.8276 16.0659L18.5251 19.0817C18.7856 20.2122 18.5214 20.6121 18.3978 20.7022C18.2729 20.7933 17.8086 20.922 16.8083 20.3313C16.8081 20.3311 16.8079 20.331 16.8076 20.3309L13.8707 18.5923C13.8706 18.5923 13.8705 18.5922 13.8704 18.5921C13.4612 18.3498 12.9692 18.2517 12.5193 18.2517C12.0687 18.2517 11.5769 18.3501 11.1657 18.5893L11.1657 18.5893L11.1609 18.5921L8.22303 20.3313L8.22232 20.3317C7.2301 20.9205 6.76475 20.7916 6.63745 20.6987C6.51074 20.6063 6.24648 20.204 6.50602 19.0824L6.50604 19.0823L7.20366 16.0658L7.20367 16.0659L7.20478 16.0609C7.30262 15.6244 7.25855 15.1523 7.14117 14.7423C7.02389 14.3326 6.81108 13.9068 6.49235 13.5881L5.96201 14.1184L6.49234 13.5881L4.05561 11.1514C3.43135 10.5271 3.40211 10.0858 3.46598 9.88579C3.52962 9.6865 3.80816 9.34408 4.68026 9.19873L7.81423 8.67804L7.81423 8.67804L7.81687 8.67759C8.22436 8.6084 8.61974 8.40783 8.93756 8.17218C9.25445 7.93722 9.5635 7.61601 9.74875 7.23946L11.4761 3.78473C11.4762 3.78453 11.4763 3.78434 11.4764 3.78415C11.8937 2.95414 12.3128 2.79041 12.5144 2.79041C12.7147 2.79041 13.1314 2.95256 13.5439 3.78192Z" fill="#E8E8E8" stroke="#E8E8E8" stroke-width="1.5" stroke-linecap="round" stroke-linejoin="round"/>
<path d="M10.275 11.3176C10.6436 11.3176 10.9424 11.0188 10.9424 10.6503C10.9424 10.2817 10.6436 9.98291 10.275 9.98291C9.90645 9.98291 9.60767 10.2817 9.60767 10.6503C9.60767 11.0188 9.90645 11.3176 10.275 11.3176Z" fill="#C6C6C6"/>
<path d="M14.8065 11.3176C15.1751 11.3176 15.4739 11.0188 15.4739 10.6503C15.4739 10.2817 15.1751 9.98291 14.8065 9.98291C14.4379 9.98291 14.1392 10.2817 14.1392 10.6503C14.1392 11.0188 14.4379 11.3176 14.8065 11.3176Z" fill="#C6C6C6"/>
<path d="M15.1226 14.125C15.1197 14.137 15.1189 14.1416 15.1177 14.1478L15.1146 14.1645L15.1088 14.1948C15.1047 14.2144 15.1004 14.2325 15.096 14.251C15.0874 14.2872 15.0769 14.3224 15.0664 14.3572C15.0444 14.4254 15.0185 14.4923 14.9889 14.5576C14.9296 14.6877 14.8569 14.8112 14.772 14.9263C14.5988 15.1575 14.3836 15.3542 14.1377 15.506C14.0159 15.5804 13.8885 15.6453 13.7566 15.7C13.6269 15.7529 13.4935 15.7962 13.3574 15.8295C13.0943 15.8935 12.8246 15.9259 12.5538 15.9259C12.2865 15.9287 12.0197 15.9012 11.7586 15.844L11.6587 15.8206C11.6254 15.813 11.5922 15.802 11.5592 15.7929C11.5261 15.7837 11.4929 15.7746 11.46 15.7625L11.3614 15.7281C11.2292 15.6794 11.1011 15.6204 10.9781 15.5517C10.8535 15.4821 10.735 15.402 10.6241 15.3122C10.5131 15.2212 10.4108 15.1201 10.3185 15.01C10.2955 14.9826 10.274 14.9536 10.252 14.9257C10.2301 14.8977 10.2096 14.8678 10.1897 14.8381C10.1499 14.7784 10.1133 14.7166 10.0802 14.653C10.0466 14.589 10.017 14.5229 9.99151 14.4553C9.97946 14.4209 9.96681 14.386 9.95609 14.3497C9.95079 14.3309 9.9456 14.3136 9.94054 14.2932L9.93319 14.2627L9.92922 14.2458C9.92765 14.2392 9.92693 14.2354 9.92319 14.2224C9.89099 14.1314 9.89626 14.0313 9.93782 13.9442C9.97939 13.8571 10.0539 13.7901 10.1448 13.7579C10.2358 13.7257 10.3359 13.731 10.423 13.7725C10.5101 13.8141 10.5771 13.8886 10.6093 13.9796C10.6081 13.9733 10.61 13.9759 10.611 13.9761C10.6119 13.9762 10.6136 13.9777 10.6151 13.979C10.6165 13.9802 10.6212 13.9841 10.6248 13.9876L10.6456 14.0084C10.6604 14.0231 10.6752 14.0384 10.691 14.0533C10.7217 14.0838 10.7551 14.1135 10.7883 14.1422C10.8548 14.1992 10.9252 14.2515 10.9989 14.2989C11.0714 14.3457 11.1468 14.388 11.2247 14.4255C11.3028 14.4622 11.383 14.4947 11.4647 14.5227C11.5477 14.5512 11.6322 14.5753 11.7177 14.595C11.7615 14.6043 11.8045 14.6146 11.8494 14.6217C11.8717 14.6255 11.8933 14.6303 11.9161 14.6337L11.9839 14.6436C12.171 14.6687 12.3597 14.6805 12.5485 14.6789C12.7341 14.6793 12.9194 14.6651 13.1028 14.6365C13.1899 14.6228 13.2762 14.6048 13.3615 14.5825C13.4453 14.5602 13.5263 14.5331 13.6062 14.5032C13.7654 14.4408 13.9159 14.3582 14.054 14.2575C14.1249 14.2052 14.1923 14.1483 14.2558 14.0873C14.2874 14.0561 14.3192 14.0243 14.3489 13.9916L14.371 13.9675L14.3922 13.9434L14.4122 13.9208C14.4158 13.9169 14.4187 13.914 14.4216 13.9111C14.4228 13.9097 14.4242 13.9085 14.4257 13.9076C14.4269 13.9076 14.4286 13.9048 14.4278 13.9103C14.4419 13.8646 14.4648 13.8222 14.4953 13.7854C14.5258 13.7486 14.5633 13.7181 14.6055 13.6958C14.6478 13.6735 14.694 13.6597 14.7416 13.6553C14.7892 13.6508 14.8372 13.6558 14.8829 13.6699C14.9286 13.684 14.971 13.7069 15.0078 13.7374C15.0446 13.7679 15.075 13.8054 15.0973 13.8477C15.1197 13.8899 15.1334 13.9362 15.1379 13.9837C15.1423 14.0313 15.1374 14.0793 15.1233 14.125H15.1226Z" fill="#C6C6C6"/>
</svg>
