<svg width="24" height="24" viewBox="0 0 24 24" fill="none" xmlns="http://www.w3.org/2000/svg">
<path d="M12.9939 3.78192L12.9946 3.78332L14.7226 7.23943C14.908 7.61622 15.2174 7.93778 15.5365 8.17322C15.8569 8.40963 16.255 8.60937 16.6666 8.67798L16.667 8.67804L19.801 9.19873C19.8011 9.19875 19.8012 9.19877 19.8014 9.19879C20.6739 9.3443 20.9551 9.68727 21.0194 9.88715C21.0831 10.0854 21.0558 10.5255 20.4274 11.1496L20.4256 11.1514L17.9889 13.5881C17.6702 13.9068 17.4573 14.3326 17.3401 14.7423C17.2227 15.1523 17.1786 15.6244 17.2765 16.0609L17.2764 16.0609L17.2776 16.0659L17.9751 19.0817C18.2356 20.2122 17.9713 20.6121 17.8477 20.7022C17.7229 20.7933 17.2586 20.922 16.2582 20.3313C16.258 20.3311 16.2578 20.331 16.2576 20.3309L13.3207 18.5923C13.3206 18.5923 13.3205 18.5922 13.3204 18.5921C12.9112 18.3498 12.4191 18.2517 11.9693 18.2517C11.5186 18.2517 11.0269 18.3501 10.6157 18.5893L10.6157 18.5893L10.6108 18.5921L7.67298 20.3313L7.67227 20.3317C6.68006 20.9205 6.2147 20.7916 6.0874 20.6987C5.96069 20.6063 5.69643 20.204 5.95597 19.0824L5.95599 19.0823L6.65361 16.0659L6.65362 16.0659L6.65474 16.0609C6.75257 15.6244 6.7085 15.1523 6.59112 14.7423C6.47384 14.3326 6.26103 13.9068 5.9423 13.5881L3.50556 11.1514C2.88131 10.5271 2.85206 10.0858 2.91593 9.88579C2.97957 9.6865 3.25812 9.34408 4.13021 9.19873L7.26418 8.67804L7.26418 8.67804L7.26682 8.67759C7.67431 8.6084 8.06969 8.40783 8.38751 8.17218C8.7044 7.93722 9.01345 7.61601 9.1987 7.23946L10.9261 3.78473C10.9262 3.78453 10.9263 3.78434 10.9264 3.78415C11.3437 2.95414 11.7627 2.79041 11.9644 2.79041C12.1647 2.79041 12.5814 2.95256 12.9939 3.78192Z" fill="#FABF35" stroke="#FABF35" stroke-width="1.5" stroke-linecap="round" stroke-linejoin="round"/>
<path d="M9.64561 11.3176C10.0142 11.3176 10.3129 11.0188 10.3129 10.6503C10.3129 10.2817 10.0142 9.98291 9.64561 9.98291C9.27705 9.98291 8.97827 10.2817 8.97827 10.6503C8.97827 11.0188 9.27705 11.3176 9.64561 11.3176Z" fill="#BB8300"/>
<path d="M14.3172 11.3176C14.6858 11.3176 14.9846 11.0188 14.9846 10.6503C14.9846 10.2817 14.6858 9.98291 14.3172 9.98291C13.9487 9.98291 13.6499 10.2817 13.6499 10.6503C13.6499 11.0188 13.9487 11.3176 14.3172 11.3176Z" fill="#BB8300"/>
<path d="M9.29861 15.4408C9.30146 15.4283 9.30221 15.4236 9.30333 15.4174L9.30656 15.4003L9.3124 15.3691C9.31637 15.3488 9.32072 15.3301 9.32482 15.3109C9.33364 15.2737 9.3442 15.2373 9.35488 15.2014C9.37705 15.1308 9.40318 15.0615 9.43314 14.9939C9.49345 14.8591 9.56756 14.7309 9.65426 14.6113C9.83121 14.3702 10.0521 14.1646 10.3054 14.0056C10.4311 13.9271 10.5628 13.8589 10.6992 13.8014C10.8335 13.7456 10.9717 13.7 11.1128 13.6647C11.3856 13.5971 11.6655 13.5627 11.9466 13.5624C12.2239 13.5593 12.5007 13.5882 12.7714 13.6486L12.875 13.6734C12.9094 13.6816 12.9439 13.6929 12.9783 13.7026C13.047 13.7215 13.1149 13.7465 13.183 13.7708C13.3198 13.822 13.4524 13.8839 13.5794 13.9561C13.7081 14.0291 13.8302 14.1131 13.9444 14.2072C14.0586 14.3022 14.1636 14.4078 14.2579 14.5226C14.3519 14.6373 14.4334 14.7617 14.501 14.8937C14.5352 14.9601 14.5653 15.0285 14.5911 15.0985C14.6035 15.134 14.6159 15.1702 14.6269 15.2077C14.6322 15.227 14.6374 15.245 14.6425 15.266L14.6498 15.2974L14.6538 15.3148C14.6554 15.3215 14.6562 15.3256 14.6599 15.3388C14.6778 15.3856 14.6862 15.4356 14.6844 15.4858C14.6827 15.536 14.6709 15.5853 14.6497 15.6308C14.6286 15.6763 14.5985 15.7171 14.5613 15.7508C14.5241 15.7845 14.4805 15.8104 14.4331 15.827C14.3858 15.8435 14.3355 15.8504 14.2854 15.8472C14.2353 15.8439 14.1864 15.8307 14.1415 15.8082C14.0966 15.7858 14.0567 15.7545 14.0241 15.7163C13.9916 15.6782 13.967 15.6338 13.9518 15.586C13.9529 15.5922 13.9511 15.5894 13.95 15.5893C13.9488 15.5892 13.9472 15.5875 13.9456 15.5862C13.944 15.585 13.9394 15.5806 13.9357 15.5769L13.9142 15.555C13.8989 15.5395 13.8836 15.5235 13.8673 15.5077C13.8358 15.4758 13.8013 15.4446 13.7671 15.4143C13.6986 15.3543 13.6262 15.2991 13.5502 15.2489C13.4756 15.1995 13.3979 15.1549 13.3175 15.1155C13.2371 15.0768 13.1546 15.0425 13.0704 15.0128L13.0068 14.9911L12.9417 14.9718C12.9206 14.9646 12.8981 14.9594 12.876 14.9537C12.8539 14.948 12.8326 14.9412 12.8098 14.9369C12.7647 14.9273 12.7205 14.9163 12.6742 14.9088C12.6512 14.9047 12.6288 14.8998 12.6055 14.8964L12.5355 14.8861C12.3424 14.8595 12.1476 14.8471 11.9527 14.8488C11.5565 14.8507 11.1886 14.9045 10.863 15.0352C10.6987 15.1012 10.5437 15.1883 10.4018 15.2942C10.3287 15.3493 10.2592 15.4091 10.1939 15.4733C10.1615 15.506 10.1287 15.5394 10.0982 15.5737L10.0754 15.5993L10.0535 15.6241L10.0328 15.648C10.0292 15.6519 10.0261 15.655 10.0231 15.6581C10.0219 15.6596 10.0204 15.6608 10.0189 15.6619C10.0176 15.6619 10.0159 15.6649 10.0166 15.6595C9.98765 15.7547 9.92204 15.8345 9.83424 15.8813C9.74643 15.9282 9.64362 15.9382 9.54842 15.9092C9.45322 15.8802 9.37343 15.8146 9.32661 15.7268C9.27978 15.639 9.26975 15.5362 9.29873 15.441L9.29861 15.4408Z" fill="#BB8300"/>
</svg>
