<svg width="20" height="19" viewBox="0 0 20 19" fill="none" xmlns="http://www.w3.org/2000/svg">
<path d="M10.273 4.86401V9.50038L14.1366 11.8186" stroke="" stroke-width="1.5" stroke-linecap="round" stroke-linejoin="round"/>
<path d="M4.86363 7.18212H1V3.31848" stroke="" stroke-width="1.5" stroke-linecap="round" stroke-linejoin="round"/>
<path d="M4.43863 15.6822C5.65372 16.8287 7.17973 17.5918 8.82602 17.8761C10.4723 18.1603 12.1658 17.9531 13.695 17.2804C15.2242 16.6076 16.5213 15.4992 17.4241 14.0935C18.3269 12.6878 18.7955 11.0472 18.7713 9.37679C18.7471 7.70632 18.2311 6.08003 17.2879 4.70112C16.3447 3.3222 15.0161 2.25181 13.4681 1.62368C11.92 0.995545 10.2212 0.837531 8.58381 1.16938C6.94646 1.50122 5.44321 2.30821 4.26187 3.48952C3.125 4.64088 2.18614 5.72656 1 7.18219" stroke="" stroke-width="1.5" stroke-linecap="round" stroke-linejoin="round"/>
</svg>
